<?xml version="1.0" standalone="no"?>
<!DOCTYPE svg PUBLIC "-//W3C//DTD SVG 1.1//EN" "http://www.w3.org/Graphics/SVG/1.1/DTD/svg11.dtd" >
<!--
2013-9-30: Created.
-->
<svg>
<metadata>
Created by iconfont
</metadata>
<defs>

<font id="wdzjshuju" horiz-adv-x="1024" >
  <font-face
    font-family="wdzjshuju"
    font-weight="500"
    font-stretch="normal"
    units-per-em="1024"
    ascent="896"
    descent="-128"
  />
    <missing-glyph />
    
    <glyph glyph-name="x" unicode="x" horiz-adv-x="1001"
d="M281 543q-27 -1 -53 -1h-83q-18 0 -36.5 -6t-32.5 -18.5t-23 -32t-9 -45.5v-76h912v41q0 16 -0.5 30t-0.5 18q0 13 -5 29t-17 29.5t-31.5 22.5t-49.5 9h-133v-97h-438v97zM955 310v-52q0 -23 0.5 -52t0.5 -58t-10.5 -47.5t-26 -30t-33 -16t-31.5 -4.5q-14 -1 -29.5 -0.5
t-29.5 0.5h-32l-45 128h-439l-44 -128h-29h-34q-20 0 -45 1q-25 0 -41 9.5t-25.5 23t-13.5 29.5t-4 30v167h911zM163 247q-12 0 -21 -8.5t-9 -21.5t9 -21.5t21 -8.5q13 0 22 8.5t9 21.5t-9 21.5t-22 8.5zM316 123q-8 -26 -14 -48q-5 -19 -10.5 -37t-7.5 -25t-3 -15t1 -14.5
t9.5 -10.5t21.5 -4h37h67h81h80h64h36q23 0 34 12t2 38q-5 13 -9.5 30.5t-9.5 34.5q-5 19 -11 39h-368zM336 498v228q0 11 2.5 23t10 21.5t20.5 15.5t34 6h188q31 0 51.5 -14.5t20.5 -52.5v-227h-327z" />
    

    
    <glyph glyph-name="edit" unicode="&#58903;" d="M939.3396 757.9226c-15.6231 15.6224-40.952 15.6224-56.573 0L486.7604 361.9331c-15.6231-15.6204-15.6231-40.9482 0-56.5706 15.6211-15.6204 40.95-15.6204 56.571 0l396.0081 395.9895C954.9606 716.9744 954.9606 742.3022 939.3396 757.9226zM792.6369 333.1496c-21.8901 0-39.6378-17.745-39.6378-39.6361l0-198.181633c0-21.8912-17.7457-39.6361-39.6378-39.6361L198.06603 55.695767c-21.8921 0-39.6378 17.745-39.6378 39.6361L158.42823 729.512878c0 21.8892 17.7457 39.6361 39.6378 39.6361l396.379902 0c21.8921 0 39.6378 17.745 39.6378 39.6361 0 21.8892-17.7457 39.6361-39.6378 39.6361L158.42824 848.421178c-43.7822 0-79.2756-35.4919-79.2756-79.2723l0-713.454278c0-43.7803 35.4934-79.2743 79.2756-79.2743l594.570853 0c43.7842 0 79.2756 35.4939 79.2756 79.2743L832.274693 293.513486C832.2747 315.4046 814.529 333.1496 792.6369 333.1496z"  horiz-adv-x="1000" />

    
    <glyph glyph-name="search" unicode="&#58880;" d="M921.745408 5.265408 628.006912 299.003904c100.204544 116.133888 95.511552 292.040704-14.687232 402.189312-55.927808 55.9104-130.2784 86.69696-209.378304 86.69696-79.099904 0-153.450496-30.78656-209.378304-86.69696-115.429376-115.377152-115.429376-303.172608 0-418.54976 55.927808-55.9104 130.279424-86.69696 209.378304-86.69696 72.699904 0 141.193216 26.302464 195.244032 73.95328l293.597184-293.597184L921.745408 5.265408zM403.958784 235.384832c-68.557824 0.016384-132.998144 26.699776-181.465088 75.132928-100.038656 100.005888-100.038656 262.759424 0 362.765312 48.484352 48.45056 112.907264 75.132928 181.466112 75.132928 68.557824 0 132.98176-26.682368 181.465088-75.132928 100.056064-100.005888 100.056064-262.7584 0-362.765312C536.940544 262.068224 472.517632 235.384832 403.958784 235.384832z"  horiz-adv-x="1024" />

    
    <glyph glyph-name="write" unicode="&#58933;" d="M547.712 85.824h-407.36c-6.784 0-12.352 5.568-12.352 12.352 0 6.848 5.568 12.416 12.352 12.416h407.296c6.784 0 12.352-5.568 12.352-12.416 0.064-6.784-5.504-12.352-12.288-12.352zM623.232 397.12c-3.2 0-6.4 1.216-8.768 3.648-4.864 4.864-4.864 12.672 0 17.472l260.352 260.352c4.8 4.864 12.672 4.864 17.472 0s4.8-12.672 0-17.536l-260.288-260.352c-2.432-2.432-5.568-3.584-8.768-3.584zM437.12 210.944c-3.2 0-6.4 1.216-8.832 3.648-4.8 4.8-4.8 12.608 0 17.472l129.408 129.472c4.864 4.864 12.672 4.864 17.536 0 4.8-4.864 4.8-12.672 0-17.536l-129.408-129.408c-2.368-2.496-5.568-3.648-8.704-3.648z"  horiz-adv-x="1024" />

    
    <glyph glyph-name="arrow-left" unicode="&#58909;" d="M738.877-56.588c-5.515-5.515-12.754-8.287-19.993-8.287s-14.479 2.771-19.993 8.287l-424.194 424.194c-11.057 11.057-11.057 28.93 0 39.988l424.194 424.194c11.057 11.057 28.93 11.057 39.988 0s11.057-28.93 0-39.988l-404.202-404.202 404.202-404.202c11.057-11.057 11.057-28.96 0-39.988z"  horiz-adv-x="1024" />

    
    <glyph glyph-name="add" unicode="&#58893;" d="M1024 457.142857 585.142857 457.142857 585.142857 896 475.428571 896 475.428571 457.142857 36.571429 457.142857 36.571429 347.428571 475.428571 347.428571 475.428571-91.428571 585.142857-91.428571 585.142857 347.428571 1024 347.428571Z"  horiz-adv-x="1024" />

    
    <glyph glyph-name="tip" unicode="&#58894;" d="M615.122659 35.109891 431.980525 35.109891c-37.056987 0-67.205635 30.148647-67.205635 67.206658l0 142.249795c-37.808094 24.63098-69.614497 57.857732-92.544743 96.821139-26.247804 44.602847-40.121789 95.674013-40.121789 147.69276 0 77.895091 30.333866 151.126976 85.413322 206.206432s128.311341 85.413322 206.206432 85.413322c77.894068 0 151.126976-30.333866 206.206432-85.413322 55.080479-55.079456 85.414345-128.311341 85.414345-206.206432 0-52.096519-13.913894-103.235223-40.234353-147.886165-22.99676-39.009456-54.882981-72.247464-92.784196-96.860025l0-142.016481C682.329317 65.258539 652.18067 35.109891 615.122659 35.109891zM523.728112 729.533664c-64.227814 0-124.611066-25.01165-170.027441-70.427002-45.415352-45.416376-70.427002-105.799628-70.427002-170.027441 0-42.900066 11.429307-84.997859 33.05279-121.741715 21.0095-35.70213 51.0507-65.565275 86.874603-86.36295l12.738116-7.396457 0-171.262572c0-8.845459 7.195889-16.041348 16.040325-16.041348l183.143157 0c8.845459 0 16.041348 7.195889 16.041348 16.041348L631.164007 273.396973l12.771885 7.389294c35.910884 20.775162 66.028832 50.647517 87.09973 86.390579 21.683858 36.784788 33.146934 78.93784 33.146934 121.902374 0 64.227814-25.01165 124.611066-70.427002 170.027441C648.339178 704.522014 587.955926 729.533664 523.728112 729.533664zM612.406804-48.179047 435.048397-48.179047c-14.128789 0-25.582655 11.453866-25.582655 25.582655s11.453866 25.582655 25.582655 25.582655l177.358407 0c14.129812 0 25.582655-11.453866 25.582655-25.582655S626.536616-48.179047 612.406804-48.179047zM652.312676 162.690592 404.01152 162.690592c-14.128789 0-25.582655 11.453866-25.582655 25.582655s11.453866 25.582655 25.582655 25.582655l248.301156 0c14.128789 0 25.582655-11.453866 25.582655-25.582655S666.441465 162.690592 652.312676 162.690592zM843.660702 689.624722M218.350007 705.997622"  horiz-adv-x="1024" />

    
    <glyph glyph-name="warn" unicode="&#58882;" d="M946.399621 90.532155c0 0-338.714352 579.191308-382.716518 651.846048-51.757804 62.370513-111.540376 0-111.540376 0s-300.852022-519.839549-356.251773-613.983719c-77.125565-109.543905 12.925381-128.594797 12.925381-128.594797s744.461399 0 821.209364 0C984.084918 20.214646 946.399621 90.532155 946.399621 90.532155zM511.674589 119.134587c-24.301476 0-44.002167 19.700691-44.002167 44.002167 0 24.301476 19.700691 44.002167 44.002167 44.002167 24.301476 0 44.002167-19.700691 44.002167-44.002167C555.676755 138.835278 535.976064 119.134587 511.674589 119.134587zM555.676755 300.172803c0-24.301476-19.700691-44.002167-44.002167-44.002167-24.301476 0-44.002167 19.700691-44.002167 44.002167l0 213.870995c0 24.301476 19.700691 44.002167 44.002167 44.002167 24.301476 0 44.002167-19.700691 44.002167-44.002167L555.676755 300.172803z"  horiz-adv-x="1024" />

    
    <glyph glyph-name="star" unicode="&#58887;" d="M513.943229 47.868003c5.329333 0 10.658667-1.279971 15.476012-3.909729l236.70153-127.415286c14.219313-7.633281 32.534533-6.632577 45.892775 2.490125 13.078975 9.006341 19.68828 24.13327 17.081794 39.399832l-46.148769 275.542829c-1.745415 10.402673 1.652326 21.038067 9.169246 28.554987l198.977296 198.581669c10.891389 10.868117 14.568396 26.483762 9.63469 40.819436-5.003523 14.568396-18.035954 25.133974-33.907593 27.484466l-271.446922 40.377264c-10.728483 1.582509-19.944274 8.377991-24.645258 18.129043L552.668167 832.885798c-6.935115 14.405491-22.131861 23.691098-38.724938 23.691098s-31.813095-9.285607-38.794755-23.691098l-117.966773-244.916616c-4.677712-9.774323-13.940047-16.569805-24.645258-18.152315L61.066248 529.416331c-15.662189-2.32722-28.950615-13.12552-33.930865-27.554283-4.910434-14.265858-1.210154-29.85823 9.657962-40.703075l198.954024-198.628213c7.493648-7.493648 10.914661-18.129043 9.169246-28.554987L198.791118-41.497239c-2.606486-15.313107 3.979546-30.463308 17.174882-39.539465 13.12552-9.006341 31.44074-10.100134 45.916047-2.32722l236.585169 127.322197C503.284562 46.588032 508.590623 47.868003 513.943229 47.868003z"  horiz-adv-x="1028" />

    
    <glyph glyph-name="location" unicode="&#58911;" d="M792.256 626.816c-102.656 140.224-274.88 134.848-279.936 134.4C511.232 761.28 509.248 761.28 506.368 761.28c-29.376 0-180.928-6.528-274.496-134.528-49.344-67.392-82.816-186.112 37.44-369.28 29.504-45.12 144.64-195.776 158.592-213.504 12.096-15.744 42.112-54.976 42.176-54.976 6.784-10.368 21.824-22.4 41.92-22.4 20.224 0 35.264 12.096 41.024 20.864 0 0.128 30.656 40.384 43.072 56.384 7.936 10.112 127.68 166.4 158.592 213.632C874.944 440.704 841.472 559.424 792.256 626.816zM512 327.936c-71.488 0-129.664 58.112-129.664 129.728 0 71.488 58.176 129.728 129.664 129.6 71.552 0 129.728-58.112 129.728-129.6C641.728 386.048 583.552 327.936 512 327.936z"  horiz-adv-x="1024" />

    
    <glyph glyph-name="discuss" unicode="&#58916;" d="M286.3134 519.059022c-31.017434 0-56.165184-26.079982-56.165184-58.262962 0-32.184003 25.14775-58.263985 56.165184-58.263985 31.017434 0 56.165184 26.079982 56.165184 58.263985C342.478584 492.978017 317.330834 519.059022 286.3134 519.059022zM510.976182 519.059022c-31.017434 0-56.165184-26.079982-56.165184-58.262962 0-32.184003 25.148773-58.263985 56.165184-58.263985s56.165184 26.079982 56.165184 58.263985C567.141366 492.978017 541.992593 519.059022 510.976182 519.059022zM735.638965 519.059022c-31.017434 0-56.166207-26.079982-56.166207-58.262962 0-32.184003 25.148773-58.263985 56.166207-58.263985s56.165184 26.079982 56.165184 58.263985C791.804149 492.978017 766.655376 519.059022 735.638965 519.059022zM847.968309 810.362574 173.982008 810.362574c-62.034868 0-112.330368-52.175313-112.330368-116.526947l0-436.95584c0-64.352657 51.421136-123.670647 114.88147-123.670647l171.183777 0c29.837562-31.785937 153.332201-159.63986 153.332201-159.63986 5.483898-5.703909 14.370289-5.703909 19.854187 0 0 0 90.418312 102.513792 149.328004 159.63986L845.41823 133.20914c63.461357 0 114.882494 59.319014 114.882494 123.670647L960.300724 693.835627C960.300724 758.187261 910.004201 810.362574 847.968309 810.362574zM904.13554 256.879788c0-32.1707-26.986631-65.929572-58.71731-65.929572L673.137469 190.950216c-20.869307 0-39.628556-21.459754-39.628556-21.459754L512.538771 44.022888l-120.942513 125.467573c0 0-23.037692 21.459754-42.782386 21.459754L176.533111 190.950216c-31.730679 0-58.716286 33.758871-58.716286 65.929572L117.816824 693.835627c0 32.18298 25.14775 58.265008 56.165184 58.265008l673.986301 0c31.017434 0 56.167231-26.082028 56.167231-58.265008L904.13554 256.879788z"  horiz-adv-x="1024" />

    
    <glyph glyph-name="close" unicode="&#58895;" d="M496.496783 412.181994C631.954286 544.398705 764.779668 679.271065 898.526753 813.188987c15.601423-14.064911 29.409566-29.923101 45.010989-43.988012C815.047736 640.328376 685.281055 509.921311 554.806474 379.446729c-4.383457-4.383457-12.196955-10.483469-12.275724-12.275724-0.19232-4.349698 18.965994-21.012971 24.551449-26.597403 124.640543-124.63952 251.938781-251.298398 376.455544-375.432567-14.064911-15.601423-29.923101-29.409566-43.988012-45.010989C769.949794 48.237459 640.443972 179.235804 509.795485 309.884292c-3.602925 3.602925-12.30846 12.276747-12.275724 12.275724-3.09246 0.131964-22.367393-22.36637-25.574426-25.574426C347.130885 171.770118 219.24239 45.373123 95.48979-79.869954c-15.601423 14.064911-29.409566 29.923101-45.010989 43.988012 129.126298 129.508891 258.018334 259.041311 388.731269 389.754246 4.964507 4.964507 12.192863 10.404699 12.275724 12.275724 0.185159 4.183976-18.166026 20.21198-24.551449 26.597403C304.307021 515.372755 186.018142 632.638657 62.754525 755.902274 59.146486 759.511337 50.475732 768.255744 50.478801 768.177998c-0.11355 2.667924 15.230082 16.253059 20.45954 21.482517 9.248735 9.248735 15.158474 14.763604 21.482517 20.45954 2.540052 2.2884 0.868507 2.351824 3.068931 2.045954 4.12362-0.57389 19.244244-18.221267 25.574426-24.551449C246.35435 662.324428 372.968216 534.22213 496.496783 412.181994z"  horiz-adv-x="1024" />

    
    <glyph glyph-name="back" unicode="&#58935;" d="M511.63775 831.891913c-247.242034 0-447.671902-200.429869-447.671902-447.673949 0-247.242034 200.429869-447.671902 447.671902-447.671902s447.671902 200.429869 447.671902 447.671902C959.309652 631.462045 758.879784 831.891913 511.63775 831.891913zM511.63775-27.640268c-227.463572 0-411.858232 184.395684-411.858232 411.858232 0 227.463572 184.39466 411.860279 411.858232 411.860279 227.462548 0 411.858232-184.395684 411.858232-411.860279C923.495982 156.756439 739.099275-27.640268 511.63775-27.640268zM592.21902 625.96689 350.474187 384.220011l241.742786-241.74074 26.860764 26.861788L404.196739 384.220011l214.883045 214.886115L592.21902 625.96689z"  horiz-adv-x="1024" />

    
    <glyph glyph-name="download" unicode="&#58925;" d="M820.157 418.239h-205.439l-0 410.877h-205.439v-410.878h-205.437l308.157-273.916 308.157 273.917zM203.842-61.116h616.314v68.478l-616.314 0v-68.478z"  horiz-adv-x="1024" />

    
    <glyph glyph-name="round-check" unicode="&#58915;" d="M512-128C229.233778-128 0 101.233778 0 384S229.233778 896 512 896s512-229.233778 512-512S794.766222-128 512-128zM512 839.111111C260.636444 839.111111 56.888889 635.363556 56.888889 384s203.747556-455.111111 455.111111-455.111111 455.111111 203.747556 455.111111 455.111111S763.363556 839.111111 512 839.111111zM274.090667 384l40.220444 40.220444 140.8-140.8 281.6 281.571556 40.220444-40.220444L455.111111 202.979556 274.090667 384z"  horiz-adv-x="1024" />

    
    <glyph glyph-name="arrow-right" unicode="&#58896;" d="M283.363556-128 241.777778-85.333333 699.079111 384 241.777778 853.333333 283.363556 896 782.222222 384 283.363556-128z"  horiz-adv-x="1024" />

    
    <glyph glyph-name="loading" unicode="&#58936;" d="M902.784 273.504c-14.656 0-26.496 11.904-26.496 26.496 0 200.832-163.456 364.224-364.288 364.224-14.656 0-26.56 11.904-26.56 26.56S497.344 717.344 512 717.344c230.144 0 417.344-187.2 417.344-417.344C929.344 285.344 917.44 273.504 902.784 273.504zM512 690.784M902.784 300"  horiz-adv-x="1024" />

    
    <glyph glyph-name="round" unicode="&#58904;" d="M512-64C264.96-64 64 136.96 64 384S264.96 832 512 832s448-200.96 448-448S759.04-64 512-64zM512 768C300.256 768 128 595.744 128 384c0-211.744 172.256-384 384-384 211.744 0 384 172.256 384 384C896 595.744 723.744 768 512 768z"  horiz-adv-x="1024" />

    
    <glyph glyph-name="share" unicode="&#58910;" d="M756.394426 86.481849 149.201623 86.481849 149.201623 523.592027l139.881037 0c0 0 34.28386 47.939601 103.863115 92.934909L102.490316 616.526936c-25.794179 0-46.711307-20.646181-46.711307-46.458423l0-530.045087c0-25.541295 20.917128-46.458423 46.711307-46.458423L803.08767-6.434997c25.776116 0 46.693244 20.682307 46.693244 46.458423L849.780914 305.136285l-93.386488-76.389063L756.394426 86.481849 756.394426 86.481849zM678.524184 460.858705l0-155.43341 311.372588 232.274052L678.524184 772.195167l0-145.209667c-376.580561 0-389.206703-399.68333-389.206703-399.68333C395.872006 401.232246 474.193826 460.858705 678.524184 460.858705L678.524184 460.858705zM678.524184 460.858705"  horiz-adv-x="1024" />

    
    <glyph glyph-name="sina" unicode="&#58897;" d="M451.8342 408.518417c-91.418083-4.222161-165.298743-53.317323-165.298743-114.535593 0-61.154825 73.880661-107.105367 165.298743-102.823853 91.445712 4.164856 165.479869 61.564148 165.479869 122.708739C617.314069 374.96216 543.281959 412.742625 451.8342 408.518417zM514.088056 254.52209c-27.991518-36.225039-83.373873-53.911864-137.154753-24.701588-25.590841 13.922081-24.65554 41.259706-24.65554 41.259706s-10.610662 86.328158 81.303724 97.114828C525.663696 378.908028 542.077527 290.763502 514.088056 254.52209zM408.86148 300.470585c-17.163915-1.796926-29.459962-16.806781-29.459962-31.141254 0-14.399965 13.846356-24.317848 30.992875-22.300912 17.116843 1.946328 31.027667 15.201214 31.027667 29.53364C441.42206 290.963047 428.578544 302.351422 408.86148 300.470585zM452.433858 312.336844c-5.871731-4.288676-7.074116-12.459776-3.872191-17.549701 3.070942-5.226025 10.210549-5.829775 16.032138-1.474584 5.688559 4.491291 7.890714 12.32777 4.804423 17.545608C466.327286 315.956278 459.236797 317.422675 452.433858 312.336844zM511.999488 793.322479c-226.061642 0-409.322479-183.259814-409.322479-409.322479 0-226.060619 183.260837-409.322479 409.322479-409.322479 226.062666 0 409.322479 183.26186 409.322479 409.322479C921.321968 610.062666 738.062154 793.322479 511.999488 793.322479zM699.018929 273.286456c-37.666878-80.243579-161.944346-119.305223-254.008134-112.064308-87.512123 6.89913-200.030779 36.041868-211.638141 142.207839 0 0-6.172583 48.092321 40.333614 110.314455 0 0 66.892503 93.63968 144.778384 120.365368 77.968769 26.584472 87.059821-18.421558 87.059821-45.011146-4.136204-22.571065-11.909238-35.83209 17.366529-26.726711 0 0 76.637448 35.631522 108.181885 4.022617 25.438369-25.521257 4.202719-60.624752 4.202719-60.624752s-10.558473-11.715833 11.142781-15.940041C668.224576 385.472538 736.70218 353.662041 699.018929 273.286456zM623.452883 494.992907c-8.339946 0-15.017018 6.763031-15.017018 15.068184 0 8.436136 6.67605 15.20326 15.017018 15.20326 0 0 93.949742 17.419741 82.722026-83.790358 0-0.601704-0.064468-1.070378-0.198521-1.603521-1.050935-7.16826-7.356548-12.662391-14.764262-12.662391-8.374738 0-15.163351 6.698562-15.161305 15.068184C676.049798 442.275241 690.945043 509.926014 623.452883 494.992907zM782.274098 414.055526l-0.13303 0c-2.485611-17.124006-10.959609-18.505469-21.067828-18.505469-12.079106 0-21.819958 7.615445-21.819958 19.742646 0 10.504238 4.337795 21.173229 4.337795 21.173229 1.26583 4.414543 11.477402 31.893384-6.738471 72.952522-33.431414 56.259328-100.692307 57.078996-108.647489 53.866838-8.025791-3.14462-19.834744-4.732791-19.834744-4.732791-12.178367 0-21.920242 9.917884-21.920242 21.977547 0 10.118452 6.739495 18.681478 15.98302 21.297049 0 0 0.198521 0.335644 0.51677 0.404206 0.664126 0.134053 1.349741 0.819668 2.068102 0.887206 9.358135 1.797949 42.754756 8.368598 75.250868 0.743944C738.386542 590.26476 818.1594 533.933801 782.274098 414.055526z"  horiz-adv-x="1024" />

    
    <glyph glyph-name="fill-home" unicode="&#58924;" d="M932.544 400.576c-40 40.704-391.232 398.272-392.64 399.552-4.608 4.736-11.584 6.976-20.864 6.976-8.128 0-14.656-2.24-19.2-6.848l-389.76-403.392v-7.68c0-17.216 5.696-33.728 16-46.656 9.728-12.16 22.272-19.52 33.344-19.52h60.544v-291.84c0-51.776 35.776-70.272 66.368-70.272 1.92 0 3.52 0.128 4.544 0.256h145.088l0 297.408c0 8.64 6.976 15.232 10.432 15.232h156.288c4.992 0 9.344-11.392 9.472-15.744 0.256-8.512 0.064-203.52 0-277.888v-19.008h143.936c24.448 0 45.184 11.776 60.032 33.984 10.112 15.104 13.888 30.016 14.272 31.616l0.576 2.112 0.896 296h58.816c16.64 0 30.208 7.36 38.272 20.864 6.144 10.24 9.152 23.744 9.152 41.408l-0 7.872-5.568 5.568z"  horiz-adv-x="1024" />

    
    <glyph glyph-name="chat" unicode="&#58937;" d="M508.821 780.894c55.076 0.707 106.974-9.181 155.697-29.657 48.723-20.48 91.263-48.546 127.632-84.202 36.364-35.662 65.314-77.671 86.849-126.041 21.54-48.368 32.662-100.096 33.364-155.171 0.707-52.252-8.293-101.5-27.005-147.752s-44.485-87.207-77.324-122.863c-32.834-35.656-71.667-64.965-116.505-87.909-44.839-22.949-93.030-37.248-144.575-42.899-26.833-3.53-58.081-6.176-93.737-7.945-35.662-1.762-81.733 0.177-138.222 5.829-31.772 2.824-59.313 6.353-82.616 10.59-23.304 4.237-42.541 8.475-57.723 12.707-15.182 4.237-25.949 7.945-32.308 11.122-6.353 3.183-8.117 5.123-5.293 5.829 34.601 6.353 62.137 15.182 82.616 26.479 12.001 7.061 16.945 16.768 14.829 29.126-2.12 12.359-8.121 23.834-18.011 34.424-30.358 33.894-55.252 73.435-74.667 118.626-19.42 45.193-29.485 94.264-30.187 147.223-0.707 55.076 9.176 106.976 29.656 155.697 20.475 48.723 48.723 91.268 84.733 127.632 36.009 36.364 78.379 65.142 127.1 86.324 48.723 21.181 100.621 32.124 155.697 32.833v0zM380.659 308.505c19.066 0 35.131 6.708 48.191 20.126 13.065 13.414 19.596 29.303 19.596 47.661s-6.531 34.247-19.596 47.661c-13.061 13.414-29.126 20.126-48.191 20.126s-35.126-6.712-48.191-20.126c-13.061-13.414-19.59-29.303-19.59-47.661s6.531-34.247 19.59-47.661c13.065-13.418 29.126-20.126 48.191-20.126v0zM644.391 309.566c18.358 0 34.071 6.353 47.136 19.066 13.061 12.707 19.59 28.243 19.59 46.601 0 18.36-6.531 34.071-19.59 47.131-13.065 13.066-28.778 19.597-47.136 19.597s-33.889-6.531-46.601-19.597c-12.712-13.060-19.066-28.772-19.066-47.131 0-18.358 6.353-33.894 19.066-46.601 12.713-12.712 28.243-19.066 46.601-19.066v0zM275.293 148.995z"  horiz-adv-x="1024" />

    
    <glyph glyph-name="like" unicode="&#58917;" d="M702.131071 771.878788c-93.893818 0-161.150707-84.605414-190.140768-129.353697C482.974384 687.273374 415.747232 771.878788 321.858586 771.878788 187.126303 771.878788 77.550545 650.46497 77.550545 501.242828c0-69.772929 47.327677-169.808162 104.782869-222.157576 79.475071-102.110384 302.898424-285.923556 330.484364-285.923556 28.070788 0 246.702545 180.236929 327.611475 284.696566 58.46497 53.272566 106.020202 153.439677 106.020202 223.384566C946.449455 650.46497 836.858182 771.878788 702.131071 771.878788M888.84299 501.242828c0-55.802828-40.468687-139.081697-88.362667-181.838869-1.313616-1.197253-2.505697-2.504404-3.697778-3.944727C725.586101 222.696727 582.242909 107.636364 512.970343 57.241859 461.474263 94.934626 306.369293 212.37398 226.742949 315.823838c-1.071838 1.408-2.323394 2.721616-3.63701 3.943434-47.706505 42.702869-87.964444 125.763232-87.964444 181.475556 0 117.474263 83.752081 213.060525 186.717091 213.060525 66.368646 0 130.267798-71.83903 164.141253-143.066505 4.490343-9.438384 14.449778-15.317333 25.995636-15.317333 11.544566 0 21.500121 5.878949 26.020202 15.317333 33.842424 71.227475 97.711838 143.066505 164.115394 143.066505C805.090909 714.303354 888.84299 618.717091 888.84299 501.242828"  horiz-adv-x="1024" />

    
    <glyph glyph-name="dislike" unicode="&#58918;" d="M170.667 703.010c0 50.244 40.755 90.999 91.022 90.999h364.089c0.115 0 0.228-0.023 0.364-0.023h112.868c0.182 0 0.364 0.023 0.546 0.023h159.289v-500.622h-159.289c-2.844 0-5.552 0.546-8.329 0.82-28.444-81.92-68.54-195.447-84.878-232.949-25.623-58.914-47.969-78.052-88.815-86.471-40.619-8.351-168.892 51.246-129.162 209.237 4.096 16.293 9.899 39.481 15.997 63.852h-250.948c-50.267 0-68.267 40.755-68.268 91.045l45.511 364.089zM762.312 338.898l91.022-0.023v409.645l-113.778-0.046v-405.049l-0.865-3.868c-0.205-0.569 0.205 0.569 0 0 4.665-1.57 18.432-0.66 23.62-0.66zM216.178 293.387h284.444l-34.133-136.556c-19.069-83.945 49.607-134.44 68.267-136.532 13.062-1.456 50.176 5.211 68.267 45.533 11.833 26.374 64.080 171.19 91.546 247.785-0.091 0.865-0.501 1.616-0.501 2.503v432.356l-432.355 0.046c-25.122 0-45.511-20.389-45.512-45.534l-45.511-364.089c-0.023-25.145 20.366-45.511 45.488-45.511z"  horiz-adv-x="1024" />

    
    <glyph glyph-name="add-fill" unicode="&#58883;" d="M512 896C229.248 896 0 666.752 0 384s229.248-512 512-512 512 229.248 512 512S794.752 896 512 896zM768 352 544 352 544 128c0-17.664-14.336-32-32-32S480 110.336 480 128L480 352 256 352C238.336 352 224 366.336 224 384S238.336 416 256 416l224 0L480 640c0 17.664 14.336 32 32 32S544 657.664 544 640l0-224L768 416c17.664 0 32-14.336 32-32S785.664 352 768 352z"  horiz-adv-x="1024" />

    
    <glyph glyph-name="round-check-fill" unicode="&#58905;" d="M512.445138 832.01778c-247.116167 0-447.444728-200.582341-447.444728-448.015733 0-247.437485 200.328561-448.018803 447.444728-448.018803s447.444728 200.581318 447.444728 448.018803C959.889867 631.435439 759.561305 832.01778 512.445138 832.01778zM430.776094 188.907697 250.047939 369.342162l45.543266 45.469588 135.183865-134.966924 298.521954 297.970392 45.544289-45.469588L430.776094 188.907697z"  horiz-adv-x="1024" />

    
    <glyph glyph-name="camera" unicode="&#58927;" d="M512.034792-7.068743c-110.305245 0-220.609467-0.001023-330.914712 0.001023-57.640792 0.001023-106.656135 39.913035-118.02916 96.436376-1.532913 7.620561-2.230808 15.537881-2.237971 23.319102-0.130983 140.230812-0.352017 280.462646 0.033769 420.693458 0.145309 52.860928 26.448372 89.682555 73.476455 112.137986 14.588253 6.965645 30.496571 9.18315 46.638203 9.196453 33.373085 0.029676 66.747193 0.068562 100.120278-0.077771 3.807722-0.016373 5.714142 0.924045 7.094582 4.732791 7.040347 19.412119 14.356986 38.724976 21.721721 58.018392 12.803607 33.540907 48.010457 57.677631 83.949994 57.678654 78.968539 0.002047 157.936055 0.00614 236.904595 0.001023 35.192523-0.002047 71.03587-24.836665 83.435271-57.83829 7.208169-19.184945 14.482853-38.346353 21.415752-57.630558 1.427512-3.971451 3.342118-4.994758 7.408737-4.980431 35.250852 0.12689 70.518077 0.611937 105.751532-0.226151 36.513612-0.868787 65.712631-17.391089 88.597851-45.37135 18.196431-22.248723 25.951045-48.055482 25.927509-76.644611-0.112564-140.074246-0.064468-280.149515-0.037862-420.22376 0.011256-58.550511-44.169989-109.742427-102.08912-117.995391-5.868661-0.836041-11.855002-1.173732-17.787108-1.176802C732.955344-7.08614 622.494557-7.068743 512.034792-7.068743zM512.01535 113.213737c114.996081-1.659803 214.740806 97.731882 210.889081 218.120786-3.454682 107.990526-96.066963 201.324238-206.313879 203.600071-118.396527 2.443655-213.750245-96.708576-215.658711-206.606545C298.886251 210.498434 396.305001 111.683894 512.01535 113.213737zM512.200568 459.160817c73.862241 0.899486 135.834688-62.200644 135.423319-135.863341-0.408299-73.185836-62.282508-136.003534-136.957255-134.987391-73.887824 1.00591-134.245494 61.448514-134.011156 135.818315C376.892883 399.202237 437.21269 459.295893 512.200568 459.160817z"  horiz-adv-x="1024" />

    
    <glyph glyph-name="falling" unicode="&#58888;" d="M682.666667 128l97.92 97.92-208.213333 208-170.666667-170.666667L85.333333 579.626667 145.706667 640l256-256 170.666667 170.666667 268.373333-268.586667L938.666667 384l0-256L682.666667 128z"  horiz-adv-x="1024" />

    
    <glyph glyph-name="rising" unicode="&#58889;" d="M682.666667 640l97.92-97.92-208.213333-208-170.666667 170.666667L85.333333 188.373333 145.706667 128l256 256 170.666667-170.666667 268.373333 268.586667L938.666667 384 938.666667 640 682.666667 640z"  horiz-adv-x="1024" />

    
    <glyph glyph-name="check" unicode="&#58890;" d="M887.904744 597.79148c-12.863647 12.063755-33.151673 11.487488-45.215428-1.408843L415.935493 142.016181 182.815858 371.712619c-12.607338 12.416396-32.8644 12.287381-45.280796-0.319957-12.416396-12.576374-12.256417-32.8644 0.352641-45.248112l256.479935-252.671415c0.096331-0.096331 0.223626-0.127295 0.319957-0.223626s0.127295-0.223626 0.223626-0.319957c2.016073-1.919742 4.448434-3.008628 6.784464-4.288456 1.152533-0.672598 2.143368-1.663432 3.359548-2.143368 3.775837-1.47249 7.775299-2.239699 11.743798-2.239699 4.192125 0 8.384249 0.832576 12.287381 2.496009 1.312512 0.543583 2.33603 1.663432 3.552211 2.368714 2.399677 1.408843 4.895686 2.59234 6.944443 4.67206 0.096331 0.096331 0.127295 0.25631 0.223626 0.352641 0.063647 0.096331 0.192662 0.127295 0.287273 0.223626L889.277463 552.579492C901.439269 565.408735 900.768391 585.664077 887.904744 597.79148z"  horiz-adv-x="1024" />

    
    <glyph glyph-name="ask" unicode="&#58939;" d="M949.865 128.023h-457.766l-286.104-170.69v170.69h-57.221c-31.586 0-57.221 25.463-57.221 56.877v568.889c0 31.414 25.635 56.877 57.221 56.877h801.091c31.586 0 57.221-25.463 57.221-56.877v-568.889c0-31.414-25.635-56.877-57.221-56.877zM949.865 696.855c0 31.414-25.635 56.935-57.221 56.935h-686.649c-31.586 0-57.221-25.52-57.221-56.935v-455.077c0-31.414 25.635-56.877 57.221-56.877h57.221v-113.755l171.662 113.755h457.766c31.586 0 57.221 25.463 57.221 56.877v455.077zM657.009 501.846c-33.188-21.629-36.85-39.94-44.689-50.469 0-8.469-1.717-36.335 0-47.894h-0.572v-47.379h-51.327v48.008h0.744c2.117 12.646 0 30.155 0 47.264 0 27.409-7.153 12.531 7.496 30.956 11.272 14.248 16.88 18.482 49.496 39.54 20.256 13.161 29.869 20.542 38.281 28.439 12.932 12.646 19.684 27.924 19.684 43.774 0 39.54-37.136 66.948-90.58 66.948-36.564 0-65.289-11.616-83.828-33.245-9.556-11.559-14.076-21.572-20.256-43.717l-47.264 6.809c11.787 38.51 23.060 56.42 46.12 74.33 25.864 20.542 62.485 31.128 106.888 31.128 77.706 0 134.526-41.142 134.526-97.504 0-20.027-4.52-36.392-13.504-51.155-10.128-15.793-20.256-25.292-51.213-45.834zM606.54 241.778h-57.221v56.877h57.221v-56.877z"  horiz-adv-x="1099" />

    
    <glyph glyph-name="filter" unicode="&#58912;" d="M608.256-64c-17.696 0-32 14.304-32 32v480c0 7.936 2.944 15.584 8.256 21.44l208.8 234.496h-562.88l209.216-234.656c5.216-5.856 8.096-13.44 8.096-21.312v-288.768l50.848-41.152c13.76-11.136 15.872-31.264 4.736-44.992s-31.264-15.84-44.992-4.736l-62.72 50.752c-7.52 6.048-11.872 15.232-11.872 24.864l0 291.872-248.608 278.848c-8.384 9.408-10.464 22.88-5.312 34.4 5.152 11.488 16.608 18.912 29.216 18.912h706.336c12.672 0 24.128-7.456 29.248-19.008s2.976-25.056-5.504-34.432l-248.864-278.816v-467.712c0-17.696-14.304-32-32-32z"  horiz-adv-x="1024" />

    
    <glyph glyph-name="boult-up" unicode="&#58884;" d="M816.157 410.966l-277.442 301.682c-14.781 16.074-38.742 16.074-53.495 0l-277.418-301.682c-7.394-8.033-11.075-18.564-11.075-29.099 0-10.531 3.681-21.065 11.099-29.075 14.778-16.071 38.717-16.071 53.495 0l209.738 228.083 0-665.589c0-22.729 18.423-41.153 41.15-41.153 22.725 0 41.148 18.425 41.148 41.153l0 665.092 209.303-227.584c14.778-16.071 38.742-16.071 53.495 0 14.783 16.072 14.783 42.104 0.002 58.172z"  horiz-adv-x="1024" />

    
    <glyph glyph-name="switch" unicode="&#58914;" d="M383.935495 416.080632 191.967747 416.080632c-52.980346 0-95.983874 43.003528-95.983874 95.983874L95.983874 704.032253c0 52.980346 43.003528 95.983874 95.983874 95.983874l191.967747 0c52.980346 0 95.983874-43.003528 95.983874-95.983874l0-191.967747C479.919368 459.084159 436.915841 416.080632 383.935495 416.080632zM191.967747 736.026877c-17.545439 0-31.994625-14.449185-31.994625-31.994625l0-191.967747c0-17.545439 14.449185-31.994625 31.994625-31.994625l191.967747 0c17.545439 0 31.994625 14.449185 31.994625 31.994625L415.930119 704.032253c0 17.545439-14.449185 31.994625-31.994625 31.994625L191.967747 736.026877 191.967747 736.026877zM383.935495-32.016126 191.967747-32.016126c-52.980346 0-95.983874 43.003528-95.983874 95.983874L95.983874 256.107509c0 52.980346 43.003528 95.983874 95.983874 95.983874l191.967747 0c52.980346 0 95.983874-43.003528 95.983874-95.983874l0-191.967747C479.919368 11.159415 436.915841-32.016126 383.935495-32.016126zM191.967747 288.102133c-17.545439 0-31.994625-14.277171-31.994625-31.994625l0-191.967747c0-17.717453 14.449185-31.994625 31.994625-31.994625l191.967747 0c17.545439 0 31.994625 14.277171 31.994625 31.994625L415.930119 256.107509c0 17.717453-14.449185 31.994625-31.994625 31.994625L191.967747 288.102133 191.967747 288.102133zM832.032253-32.016126 639.892491-32.016126c-52.980346 0-95.983874 43.003528-95.983874 95.983874l0 63.989249c0 52.980346 43.003528 95.983874 95.983874 95.983874l191.967747 0c52.980346 0 95.983874-43.003528 95.983874-95.983874l0-63.989249C928.016126 11.159415 884.840585-32.016126 832.032253-32.016126zM639.892491 159.951621c-17.717453 0-31.994625-14.277171-31.994625-31.994625l0-63.989249c0-17.717453 14.277171-31.994625 31.994625-31.994625l191.967747 0c17.717453 0 31.994625 14.277171 31.994625 31.994625l0 63.989249c0 17.717453-14.277171 31.994625-31.994625 31.994625L639.892491 159.951621 639.892491 159.951621zM832.032253 288.102133 639.892491 288.102133c-52.980346 0-95.983874 43.003528-95.983874 95.983874l0 319.946246c0 52.980346 43.003528 95.983874 95.983874 95.983874l191.967747 0c52.980346 0 95.983874-43.003528 95.983874-95.983874l0-319.946246C928.016126 331.105661 884.840585 288.102133 832.032253 288.102133zM639.892491 736.026877c-17.717453 0-31.994625-14.449185-31.994625-31.994625l0-319.946246c0-17.545439 14.277171-31.994625 31.994625-31.994625l191.967747 0c17.717453 0 31.994625 14.449185 31.994625 31.994625l0 319.946246c0 17.545439-14.277171 31.994625-31.994625 31.994625L639.892491 736.026877 639.892491 736.026877z"  horiz-adv-x="1024" />

    
    <glyph glyph-name="arrow-up" unicode="&#58891;" d="M129.517 214.431l43.344-43.343 339.139 339.14 339.141-339.14 43.343 43.343-382.484 382.481-382.483-382.481z"  horiz-adv-x="1024" />

    
    <glyph glyph-name="undo" unicode="&#58906;" d="M609.206 499.344h-415.702l201.87 199.152c17.787 17.787 17.787 43.185 0 60.973s-41.555 18.641-59.42 0.778l-273.097-266.804c-17.787-17.787-17.787-41.399 0-59.186l273.173-267.115c17.787-17.787 41.555-17.787 59.42 0.078 17.787 17.787 17.787 41.166 0 58.953l-201.948 195.501h415.702c166.219 0 311.155-129.712 311.155-290.029v-41.555c0-23.769 15.069-41.555 38.836-41.555s38.836 17.787 38.836 41.555v41.555c0 207.852-175.073 367.7-388.828 367.7z"  horiz-adv-x="1024" />

    
    <glyph glyph-name="tanhao" unicode="&#58885;" d="M511.280104 831.437565c-246.914576 0-447.096804-200.151529-447.096804-447.096804 0-246.915599 200.182228-447.096804 447.096804-447.096804 246.915599 0 447.096804 200.181205 447.096804 447.096804C958.376908 631.286036 758.195703 831.437565 511.280104 831.437565zM511.280104-20.178319c-223.427652 0-404.51908 181.121104-404.51908 404.51908 0 223.427652 181.090405 404.51908 404.51908 404.51908 223.397976 0 404.520103-181.090405 404.520103-404.51908C915.799184 160.942785 734.677057-20.178319 511.280104-20.178319zM511.280104 646.430968c-25.535583 0-46.251394-20.715811-46.251394-46.251394l0-277.508361c0-25.533536 20.716834-46.25037 46.251394-46.25037 25.535583 0 46.251394 20.716834 46.251394 46.25037L557.531498 600.180598C557.531498 625.715157 536.815687 646.430968 511.280104 646.430968zM511.280104 214.751295c-25.535583 0-46.251394-20.715811-46.251394-46.25037s20.716834-46.251394 46.251394-46.251394c25.535583 0 46.251394 20.716834 46.251394 46.251394S536.815687 214.751295 511.280104 214.751295z"  horiz-adv-x="1024" />

    
    <glyph glyph-name="clean" unicode="&#58907;" d="M844.8 576 844.8 0c0-71.68-56.32-128-125.44-128L279.04-128C209.92-128 153.6-71.68 153.6 0L153.6 576c-35.84 0-64 28.16-64 64L89.6 704C89.6 739.84 117.76 768 153.6 768l189.44 0L343.04 832c0 35.84 28.16 64 64 64l189.44 0c35.84 0 64-28.16 64-64L660.48 768 844.8 768c35.84 0 64-28.16 64-64L908.8 640C908.8 604.16 880.64 576 844.8 576zM215.04 576 215.04 0c0-35.84 28.16-64 64-64l440.32 0c35.84 0 64 28.16 64 64L783.36 576C747.52 576 258.56 576 215.04 576zM404.48 768 404.48 801.28c0 17.92 15.36 30.72 30.72 30.72L563.2 832c17.92 0 30.72-15.36 30.72-30.72L593.92 768C563.2 768 404.48 768 404.48 768M814.08 704 184.32 704C166.4 704 153.6 688.64 153.6 670.72 153.6 655.36 166.4 640 184.32 640l629.76 0c17.92 0 30.72 15.36 30.72 30.72C844.8 688.64 832 704 814.08 704zM340.48 448c17.92 0 30.72-15.36 30.72-33.28l0-384c0-17.92-15.36-30.72-30.72-30.72-17.92 0-30.72 15.36-30.72 30.72l0 384C309.76 432.64 325.12 448 340.48 448zM499.2 448c17.92 0 30.72-15.36 30.72-33.28l0-384c0-17.92-15.36-30.72-30.72-30.72-17.92 0-30.72 15.36-30.72 30.72l0 384C468.48 432.64 481.28 448 499.2 448zM657.92 448c17.92 0 30.72-15.36 30.72-33.28l0-384c0-17.92-15.36-30.72-30.72-30.72-17.92 0-30.72 15.36-30.72 30.72l0 384C624.64 432.64 640 448 657.92 448z"  horiz-adv-x="1024" />

    
    <glyph glyph-name="bbs" unicode="&#58919;" d="M928.098951 702.562845c-17.619728 0-31.903542-14.283814-31.903542-31.903542l0-477.352754L702.128159 193.30655c-35.183625 0-63.807083-28.623459-63.807083-63.807083l0-193.692383L127.863413-64.192917c-0.020937 0.016949-0.040876 0.036888-0.057825 0.056828L127.805588 832.135092c0.016949 0.01994 0.036888 0.039879 0.057825 0.056828l447.447171 0c17.681541 0 41.589257-7.492347 63.952643-20.041406 25.949543-14.559979 48.136462-34.92042 62.473116-57.330664 24.954551-39.005071 26.708249-82.800657 5.221214-130.184396L495.628498 258.60313c-16.645673-28.831829-39.168576-46.278081-66.9436-51.854222-24.832919-4.985925-52.025704 0.07278-76.570494 14.243934-24.470016 14.128284-43.258212 36.07493-51.54715 60.213947-9.194202 26.773053-5.488406 55.761409 10.715602 83.82855l171.373862 296.82756c8.765498 15.182098 20.398327 23.205839 33.640291 23.205839 13.120331 0 26.481934-7.87519 33.250469-19.59675 6.901135-11.952861 6.049709-26.064197-2.462555-40.806624L386.574217 346.65192l55.258928-31.903542 160.510706 278.013444c19.974608 34.5964 20.871895 72.726117 2.462555 104.613707-18.062389 31.285411-52.804349 51.500292-88.5084 51.500292-36.276321 0-68.679352-20.08627-88.899219-55.10938L256.024925 396.937883c-25.705282-44.523386-31.170757-91.708724-15.805214-136.454439 13.413445-39.062896 41.821555-72.712159 79.991152-94.749531 28.143909-16.248873 59.023546-24.658447 89.426624-24.658447 10.638834 0 21.221837 1.029886 31.604446 3.114583 45.883275 9.211151 83.797643 37.74189 109.644497 82.509538l212.081784 367.335384 0.726803 1.259193 0.609158 1.321006c16.392438 35.508642 23.394269 70.914594 20.809085 105.234829-2.323974 30.867674-12.29383 60.257814-29.630414 87.355885C711.106015 858.570167 629.53165 895.998006 575.30859 895.998006L127.804591 895.998006c-35.183625 0-63.807083-28.623459-63.807083-63.807083l0-896.385833c0-35.183625 28.623459-63.807083 63.807083-63.807083l548.154689 0c26.256615 0 58.647682 13.61683 77.019137 32.380101l175.59809 179.33878c18.208946 18.599765 31.425985 50.990832 31.425985 77.019137L960.002492 670.658307C960.002492 688.279031 945.717682 702.562845 928.098951 702.562845zM882.984352 128.356921 707.388256-50.979866c-1.35291-1.381822-3.164433-2.779596-5.260096-4.12453L702.128159 129.441641c0.016949 0.020937 0.036888 0.040876 0.057825 0.057825l181.831245 0C883.673269 129.09469 883.328312 128.708857 882.984352 128.356921z"  horiz-adv-x="1024" />

    
    <glyph glyph-name="solid-up" unicode="&#58881;" d="M0 99.392l512 569.344 512-569.408-1024 0.064z"  horiz-adv-x="1024" />

    
    <glyph glyph-name="hongbao" unicode="&#58966;" d="M563.2 294.4l-70.4-51.2L460.8 320 428.8 326.4l44.8-108.8L384 243.2l-6.4-32L467.2 192l-12.8-44.8-89.6 25.6-6.4-32L448 115.2l-25.6-102.4L448 0l25.6 102.4 89.6-25.6L576 115.2l-89.6 25.6 12.8 44.8 89.6-25.6 6.4 32-89.6 25.6 89.6 70.4L563.2 294.4zM512 896C230.4 896 0 672 0 396.8c0-121.6 44.8-236.8 121.6-326.4l140.8 512 12.8 51.2c6.4-19.2 19.2-44.8 32-64 51.2-76.8 134.4-140.8 230.4-166.4 102.4-25.6 198.4-12.8 288 32 19.2 12.8 44.8 25.6 64 38.4l-12.8-51.2-128-473.6c166.4 83.2 275.2 249.6 275.2 448C1024 672 793.6 896 512 896zM902.4 518.4c-19.2-12.8-38.4-25.6-64-38.4C755.2 435.2 652.8 422.4 550.4 448 454.4 473.6 371.2 531.2 320 614.4c-12.8 19.2-25.6 38.4-32 64l6.4 32C307.2 748.8 345.6 768 384 761.6l473.6-121.6c38.4-12.8 64-51.2 51.2-83.2L902.4 518.4z"  horiz-adv-x="1024" />

    
    <glyph glyph-name="vs" unicode="&#58892;" d="M480 832C215.04 832 0 616.96 0 352 0 87.04 215.04-128 480-128S960 87.04 960 352C960 616.96 744.96 832 480 832zM448 531.84l-127.36-381.44c-4.48-12.8-16.64-21.76-30.08-21.76s-25.6 8.96-30.08 21.76L133.12 531.84C127.36 548.48 136.32 566.4 152.96 572.16c16.64 5.76 34.56-3.2 40.32-19.84l97.28-291.2 97.28 291.2c5.76 16.64 23.68 25.6 40.32 19.84C444.16 566.4 453.76 548.48 448 531.84zM608.64 383.36C704 383.36 768 332.16 768 256c0-78.08-60.8-127.36-159.36-127.36-92.16 0-159.36 53.76-159.36 127.36 0 17.28 14.08 32 32 32 17.92 0 32-14.08 32-32 0-37.12 39.04-63.36 95.36-63.36 35.84 0 95.36 8.32 95.36 63.36 0 60.8-79.36 63.36-95.36 63.36-95.36 0-159.36 51.2-159.36 127.36 0 78.72 60.8 127.36 159.36 127.36 92.16 0 159.36-53.76 159.36-127.36 0-17.28-14.08-32-32-32S704 428.8 704 446.72c0 37.12-39.04 63.36-95.36 63.36-35.84 0-95.36-8.32-95.36-63.36C513.28 385.92 592.64 383.36 608.64 383.36z"  horiz-adv-x="1024" />

    
    <glyph glyph-name="nav" unicode="&#58908;" d="M79.78 153.785l898.076 0 0-69.58-898.076 0 0 69.58zM79.78 420.055l898.076 0 0-69.551-898.076 0 0 69.551zM79.78 686.285l898.076 0 0-69.549-898.076 0 0 69.549z"  horiz-adv-x="1024" />

    
    <glyph glyph-name="phone" unicode="&#58902;" d="M235.25625 782.49375c43.8625 0 92.1625-78.1625 117.65-121.60625 42.44375-72.34375-1.7125-101.26875-15.43125-121.5375-28.4-41.94375-39.625-57.125-5.53125-127.19375 22.7125-46.4 64.20625-100.9375 101.06875-139.45625 68.45625-71.53125 137.8625-88.55 179.475-88.55 0.775 0 1.5375 0.00625 2.2875 0.01875 39.00625 0.59375 51.79375 18.35 71.50625 41.23125 11.0625 15.5875 25.2375 21.6 40.58125 21.6 38.66875 0.00625 84.8125-38.1625 107.66875-57.56875 23.49375-19.94375 80.61875-55.74375 73.19375-93.74375-3.8375-19.63125-42.15-58.18125-72.26875-80.46875-22.1375-15.44375-51.8-28.3125-103.25625-29.6875-0.50625-0.0125-1.0375-0.01875-1.58125-0.01875-27.05 0-96.825 16.5875-124.11875 31.825-113.58125 62.09375-150.84375 92.6125-247.09375 184.66875C257.48125 299.48125 195.1125 393.9625 159.26875 455.15625c-34.83125 59.475-51.8625 112.66875-39.7875 185.46875 7.39375 44.575 59.90625 132.0875 109.25625 141.26875C230.9 782.3 233.075 782.49375 235.25625 782.49375M235.25625 830.49375c-5.1375 0-10.2875-0.475-15.3-1.40625-78.6875-14.6375-138.93125-126.9875-147.825-180.6-15.85-95.55625 12.60625-161.04375 45.71875-217.5875 56.8125-97 126.91875-185.68125 208.375-263.5875 100.35-95.98125 141.1-128.6 257.25-192.09375 34.6125-19.325 112.3875-37.70625 147.1375-37.70625L731.25-62.4875l2.2125 0.0375c52.9 1.4125 94.03125 13.58125 129.45625 38.30625 9.38125 6.91875 82.4375 62.175 91.90625 110.625 11.875 60.75-43.75 103.975-76.9875 129.80625-4.61875 3.59375-8.8375 6.84375-12.24375 9.7375-37.825 32.1125-87.775 68.98125-138.725 68.98125-31.4625-0.00625-59.15625-14.1125-78.2625-39.8l-2.20625-2.575c-16-18.70625-17.30625-20.2375-32.3625-20.46875-0.01875 0-0.0375 0-0.0375 0-23.93125 0-82.675 7.225-146.3125 73.725-37.65625 39.35-74.01875 89.34375-92.63125 127.375-21.5125 44.2125-21.5125 44.2125 1.19375 77.7375l0.975 1.44375c1.29375 1.86875 3.09375 3.81875 4.98125 6.025 17.83125 20.84375 65.1875 76.21875 12.1 166.7125C352.15 757.03125 300.2875 830.49375 235.25625 830.49375L235.25625 830.49375zM606.048 449.056c-6.144 0-12.288 2.336-16.96 7.04-9.376 9.376-9.376 24.576 0 33.952l200.416 200.448c9.376 9.376 24.576 9.376 33.952 0s9.376-24.576 0-33.952l-200.416-200.448C618.336 451.392 612.192 449.056 606.048 449.056zM828.672 511.808c-13.248 0-24 10.752-24 24L804.672 672.8l-154.24-7.36c-13.152-0.928-24.48 9.632-25.056 22.88s9.664 24.48 22.88 25.056l154.496 6.976c12.8 1.12 25.632-4.064 35.104-12.992 9.44-8.928 14.848-21.536 14.848-34.528l0-136.992C852.672 522.56 841.92 511.808 828.672 511.808z"  horiz-adv-x="1024" />

    
    <glyph glyph-name="gantanhao" unicode="&#58940;" d="M512.000012 893.689037c-282.180781 0-510.844518-228.663737-510.844518-510.844518 0-282.180781 228.663737-510.844518 510.844518-510.844518 282.180781 0 510.844518 228.663737 510.844518 510.844518C1022.84453 664.90367 794.059164 893.689037 512.000012 893.689037L512.000012 893.689037zM512.000012-67.914953c-248.975888 0-450.759472 201.783585-450.759472 450.759472 0 248.975888 201.783585 450.759472 450.759472 450.759472 248.975888 0 450.759472-201.783585 450.759472-450.759472C962.637855 133.868631 760.85427-67.914953 512.000012-67.914953L512.000012-67.914953zM512.000012 638.266778c-23.474522 0-42.570376-19.095855-42.570376-42.570376l0-276.707447c0-23.474522 19.095855-42.570376 42.570376-42.570376 23.474522 0 42.570376 19.095855 42.570376 42.570376L554.570389 595.696401C554.448759 619.170923 535.474534 638.266778 512.000012 638.266778L512.000012 638.266778zM512.000012 212.563013c-23.474522 0-42.570376-19.095855-42.570376-42.570376 0-23.474522 19.095855-42.570376 42.570376-42.570376 23.474522 0 42.570376 19.095855 42.570376 42.570376C554.448759 193.467158 535.474534 212.563013 512.000012 212.563013L512.000012 212.563013zM512.000012 212.563013"  horiz-adv-x="1024" />

    
    <glyph glyph-name="fill-phone" unicode="&#58928;" d="M368.841 600.295l-109.321-109.236c0 0 90.802-257.899 348.616-348.701l96.435 96.435 252.096-59.312c0 0 44.121-11.948 43.268-68.87 0 0 16.812-132.619-155.064-204.902-298.692-86.962-884.554 460.412-815.769 815.684 0 0 65.797 165.56 211.132 148.834 0 0 38.062 13.313 56.239-43.438l72.369-226.494z"  horiz-adv-x="1024" />

    
    <glyph glyph-name="question" unicode="&#58886;" d="M497.54112 765.39392c-212.08064 0-384-171.91936-384-384s171.91936-384 384-384 384 171.91936 384 384S709.62176 765.39392 497.54112 765.39392L497.54112 765.39392zM497.55136 45.40416c-185.28256 0-335.99488 150.72256-335.99488 335.98464 0 185.27232 150.71744 336 335.99488 336s336-150.7328 336-336S682.8288 45.40416 497.55136 45.40416L497.55136 45.40416zM497.55136 45.40416M462.53056 197.51936c0-9.16992 3.76832-18.27328 10.25024-24.7552 6.48704-6.48192 15.59552-10.26048 24.76032-10.26048 9.16992 0 18.2784 3.77856 24.76032 10.26048s10.25536 15.58528 10.25536 24.7552c0 9.1648-3.77344 18.27328-10.25536 24.7552-6.48192 6.48704-15.5904 10.26048-24.76032 10.26048-9.1648 0-18.27328-3.77344-24.76032-10.26048C466.29888 215.79264 462.53056 206.68416 462.53056 197.51936L462.53056 197.51936zM462.53056 197.51936M497.54112 605.39392c-64.35328 0-116.70528-51.88608-116.70528-115.65568 0-12.89216 10.45504-23.3472 23.34208-23.3472s23.34208 10.45504 23.34208 23.3472c0 38.67648 30.76608 68.97664 70.02624 68.97664 38.60992 0 70.02624-31.65696 70.02624-70.56384 0-15.56992-19.5328-35.08224-38.42048-53.9904-25.76896-25.74336-54.94272-54.92224-54.94272-93.11232l0-39.4752c0-12.88192 10.45504-23.34208 23.34208-23.34208s23.34208 10.48064 23.34208 23.36256l0 39.47008c0 18.8416 20.96128 39.80288 41.27232 60.0576 25.61024 25.61024 52.10112 52.07552 52.10112 87.01952C614.25152 552.8064 561.8944 605.39392 497.54112 605.39392L497.54112 605.39392zM497.54112 605.39392"  horiz-adv-x="1024" />

    
    <glyph glyph-name="menu" unicode="&#58898;" d="M61.64 677.1c0-31.414 25.466-56.88 56.88-56.88s56.88 25.466 56.88 56.88c0 31.414-25.466 56.88-56.88 56.88-31.414 0-56.88-25.466-56.88-56.88zM54.44 395.22c0-31.447 25.493-56.94 56.94-56.94s56.94 25.492 56.94 56.94c0 31.447-25.493 56.94-56.94 56.94-31.447 0-56.94-25.492-56.94-56.94zM54.44 111.9c0-31.447 25.493-56.94 56.94-56.94s56.94 25.493 56.94 56.94c0 31.447-25.493 56.94-56.94 56.94-31.447 0-56.94-25.493-56.94-56.94zM965.18 679.74c0-30-22.26-54.24-49.8-54.24l-590.4 0c-27.54 0-49.86 24.3-49.86 54.24l0 0c0 29.94 22.26 54.24 49.86 54.24l590.34 0c27.6 0 49.86-24.3 49.86-54.24l0 0zM965.18 397.8c0-29.94-22.26-54.24-49.8-54.24l-590.4 0c-27.54 0-49.86 24.3-49.86 54.24l0 0c0 30 22.26 54.24 49.86 54.24l590.34 0c27.6 0.06 49.86-24.24 49.86-54.24l0 0zM965.18 114.66c0-30-22.26-54.3-49.8-54.3l-590.4 0c-27.54 0-49.86 24.3-49.86 54.3l0 0c0 29.88 22.26 54.18 49.86 54.18l590.34 0c27.6 0 49.86-24.3 49.86-54.18l0 0z"  horiz-adv-x="1024" />

    
    <glyph glyph-name="gantanhao1" unicode="&#58938;" d="M512.001 0.097c-43.838 0-79.328 34.387-79.328 76.822v358.239c0 42.436 35.489 76.832 79.328 76.832 43.781 0 79.327-34.395 79.328-76.832v-358.239c0-42.433-35.547-76.822-79.328-76.822zM512.001 614.299c-43.838 0-79.328 34.386-79.327 76.83 0 42.385 35.489 76.773 79.328 76.773 43.781 0 79.328-34.387 79.328-76.773 0-42.445-35.548-76.83-79.327-76.83z"  horiz-adv-x="1024" />

    
    <glyph glyph-name="reset" unicode="&#58913;" d="M875.41511 335.110646 875.41511 334.667693C875.41511 140.289437 718.831181-17.844829 524.465955-17.844829 330.087699-17.844829 173.386517 140.289437 173.386517 334.667693 173.386517 527.808285 328.237718 685.0827 523.658218 687.049932L523.658218 622.665393C523.658218 585.665779 556.749421 584.714732 575.079862 601.208222L709.972118 701.70647C709.972118 701.70647 724.667741 713.978877 724.667741 727.488947 724.667741 741.676476 709.724586 753.271425 709.724586 753.271425L575.118947 853.769673C556.788506 870.263163 523.658218 869.299088 523.658218 832.312502L523.658218 765.231159C289.15362 763.263926 96 570.918045 96 334.68072 96 97.192704 287.329695-96 524.804682-96 762.253616-96.013027 953.583309 97.179677 953.583309 334.667693L953.583309 335.110646C953.583309 335.110646 953.583309 379.080256 914.017174 379.080256 876.835168 379.093286 875.41511 335.110646 875.41511 335.110646L875.41511 335.110646Z"  horiz-adv-x="1024" />

    
    <glyph glyph-name="visitor" unicode="&#58920;" d="M617.133967 740.514763c-113.678062 0-206.14708-89.61604-206.14708-199.75551 0-76.123748 44.158732-142.41557 108.951411-176.120206C385.015376 324.322829 286.693046 202.358033 286.693046 58.543603c0-10.55745 8.79327-19.079544 19.682271-19.079544 10.876722 0 19.682271 8.521071 19.682271 19.079544 0 155.538449 130.577964 282.081517 289.608957 282.128589 2.117221-0.203638 4.197602-0.054235 6.181793 0.38988 111.485117 2.437515 201.409173 91.061972 201.409173 199.697181C823.257511 650.898723 730.788493 740.514763 617.133967 740.514763zM617.133967 379.137249c-91.972714 0-166.782537 72.503291-166.782537 161.622004s74.809823 161.622004 166.782537 161.622004c91.948155 0 166.759001-72.503291 166.759001-161.622004S709.083146 379.137249 617.133967 379.137249zM851.105766 284.620595c-7.66968 7.480368-20.119223 7.480368-27.835975 0.048095-7.680936-7.433296-7.704472-19.505239-0.035816-26.984584 54.797024-53.258994 84.977393-123.986849 84.977393-199.139479 0-10.55745 8.804527-19.079544 19.681248-19.079544s19.682271 8.521071 19.682271 19.079544C947.574888 143.876084 913.323806 224.166735 851.105766 284.620595zM408.916738 374.260172c0 0.023536-0.00307 0.047072-0.00307 0.070608s0.00307 0.047072 0.00307 0.070608c0 10.55745-8.80555 19.079544-19.682271 19.079544-71.402213 0-129.49019 60.146868-129.49019 134.093021 0 73.92364 58.087976 134.070508 129.49019 134.070508 10.876722 0 19.682271 8.521071 19.682271 19.079544 0 10.532891-8.80555 19.053961-19.682271 19.053961-93.108584 0-168.853709-77.260641-168.853709-172.20299 0-63.180971 33.534767-118.526487 83.396385-148.503219C197.604008 342.508004 120.928698 239.766015 120.928698 119.044536c0-10.556427 8.80555-19.078521 19.682271-19.078521s19.681248 8.521071 19.681248 19.078521c0 130.211621 102.694917 236.138138 228.942249 236.138138C400.111189 355.182674 408.916738 363.727281 408.916738 374.260172z"  horiz-adv-x="1024" />

    
    <glyph glyph-name="rmb" unicode="&#58926;" d="M828.025 782.689c7.373 13.274-2.227 29.585-17.411 29.585l-115.108-0.002c-8.928 0-17.082-5.052-21.044-13.055-30.894-62.37-162.051-327.153-163.902-330.922-1.854 3.769-133.011 268.552-163.902 330.922-3.964 8.003-12.116 13.055-21.046 13.055l-115.106 0.002c-15.184 0-24.784-16.311-17.413-29.585 63.616-114.551 127.234-229.102 190.825-343.671 0.93-1.672 1.514-3.533 2.944-6.94-0.005-0.007-0.005-0.010-0.010-0.015h-45.842c-25.533-0.002-51.069 0.119-76.603-0.044-18.708-0.122-25.456-7.115-25.499-25.877-0.039-17.428-0.049-34.856 0.002-52.284 0.054-18.28 6.526-24.947 24.835-24.986 51.069-0.105 102.139-0.039 153.208-0.041h15.386c0.019 0 0.037-0.015 0.037-0.034v-50.549c-4.251-0.192-8.882-0.582-13.515-0.586-50.665-0.044-101.328 0.007-151.991-0.044-22.596-0.024-27.955-5.443-27.969-27.879-0.010-16.618-0.056-33.235 0.015-49.853 0.073-17.477 6.663-24.263 24.285-24.307 51.473-0.127 102.946-0.049 154.422-0.051h15.666c0.015 0 0.027-0.012 0.027-0.027v-14.328c0.002-59.985 0.219-119.973-0.192-179.955-0.054-7.709 1.351-14.126 5.37-19.272 3.18-4.073 8.242-6.222 13.408-6.222h117.318c5.166 0 10.225 2.149 13.405 6.222 4.022 5.147 5.424 11.563 5.37 19.272-0.411 59.983-0.192 119.97-0.192 179.955v14.328c0 0.015 0.012 0.027 0.027 0.027h15.669c51.473 0.002 102.946-0.075 154.422 0.051 17.62 0.044 24.21 6.83 24.283 24.307 0.071 16.618 0.027 33.235 0.015 49.853-0.015 22.436-5.37 27.855-27.969 27.879-50.663 0.051-101.326 0-151.989 0.044-4.633 0.005-9.266 0.394-13.517 0.586v0 50.549c0 0.019 0.017 0.034 0.037 0.034h15.389c51.069 0.002 102.136-0.063 153.205 0.041 18.309 0.039 24.781 6.706 24.835 24.986 0.051 17.428 0.044 34.856 0.002 52.284-0.041 18.761-6.789 25.755-25.499 25.877-25.533 0.163-51.067 0.041-76.603 0.044h-45.842c-0.005 0.005-0.005 0.007-0.010 0.015 1.431 3.407 2.017 5.268 2.944 6.94 63.591 114.568 127.21 229.119 190.825 343.671z"  horiz-adv-x="1024" />

    
    <glyph glyph-name="award" unicode="&#58921;" d="M482.742857 296.228572 551.706122 296.228572C549.616326 277.420408 545.436735 260.702041 539.167347 246.073472L752.326528 189.648979 718.889798 129.044896C639.477551 156.212243 566.334694 179.2 505.730612 195.918368 472.293878 160.391834 401.240817 137.404083 296.75102 129.044896 288.391837 147.853062 277.942857 170.840819 265.404082 193.82857 342.726531 198.008166 399.15102 208.457146 430.497959 223.085715 463.934694 239.804083 480.653061 262.791837 482.742857 296.228572L482.742857 296.228572 482.742857 296.228572ZM482.742857 632.685715 551.706122 632.685715 551.706122 574.171428 603.95102 574.171428C616.489796 592.979592 629.028572 611.787755 639.477551 630.595918L695.902042 605.518367 672.914285 572.081633 756.506125 572.081633 756.506125 459.232653 693.812243 459.232653 693.812243 519.836735 336.457143 519.836735 336.457143 459.232653 273.763265 459.232653 273.763265 572.081633 355.265306 572.081633C348.995918 582.530612 342.726531 592.979592 336.457143 603.428572L390.791837 628.506122C403.330612 609.697959 415.869388 590.889796 428.408163 572.081633L482.742857 572.081633 482.742857 632.685715 482.742857 632.685715 482.742857 632.685715ZM319.738776 223.085715 319.738776 361.012245 716.8 361.012245 716.8 223.085715 647.836736 223.085715 647.836736 306.677551 386.612245 306.677551 386.612245 223.085715 319.738776 223.085715 319.738776 223.085715 319.738776 223.085715ZM361.534694 386.089796 361.534694 496.84898 675.004083 496.84898 675.004083 386.089796 361.534694 386.089796 361.534694 386.089796 361.534694 386.089796ZM422.138776 425.795918 612.310204 425.795918 612.310204 452.963265 422.138776 452.963265 422.138776 425.795918 422.138776 425.795918 422.138776 425.795918ZM512 883.461225C236.146939 883.461225 10.44898 659.853061 10.44898 381.910204 10.44898 106.057146 234.057143-119.640819 512-119.640819 787.853062-119.640819 1013.551021 103.967347 1013.551021 381.910204 1013.551021 657.763265 789.942854 883.461225 512 883.461225L512 883.461225 512 883.461225ZM512-84.114285C254.955102-84.114285 45.97551 124.865306 45.97551 381.910204 45.97551 638.955102 254.955102 847.934694 512 847.934694 769.044896 847.934694 978.024493 638.955102 978.024493 381.910204 978.024493 124.865306 769.044896-84.114285 512-84.114285L512-84.114285 512-84.114285Z"  horiz-adv-x="1024" />

    
    <glyph glyph-name="fill-user" unicode="&#58929;" d="M962.576 105.134c-64.042 49.852-248.637 132.665-248.637 132.665l-119.861-220.372-17.77 52.495 32.798 66.265-65.643 66.265-65.67-66.265 32.849-66.265-21.174-53.736-116.524 221.606c0 0-184.574-82.835-248.626-132.665-64.047-49.824-92.318-201.127-92.318-201.127h1024.717c0 0.006-18.773 142.46-94.142 201.133v0 0 0 0zM549.565 256.732c150.43 0.239 250.712 200.343 250.712 308.055 0 107.703-0.423 299.213-250.712 299.213-250.272 0-250.718-191.533-250.718-299.24 0-107.708 100.295-308.267 250.718-308.028v0 0 0 0zM549.565 256.732z"  horiz-adv-x="1094" />

    
    <glyph glyph-name="setting" unicode="&#58899;" d="M1020.2 453.8c-4 22.2-25.4 44.8-47.6 49.8l-16.6 3.8c-39 11.8-73.6 37.6-95.6 75.6-22 38.2-27.2 81.6-17.6 121.4l0 0L848 720c6.6 21.6-2 51.4-19.4 66.2 0 0-15.6 13.2-59.6 38.6C725 850 706 857 706 857c-21.4 7.8-51.4 0.4-67-16.2l-11.6-12.4c-29.6-28-69.4-45-113.4-45-44 0-84.2 17.2-113.8 45.4l-11.2 12c-15.4 16.6-45.6 24-67 16.2 0 0-19.2-7-63.2-32.2C214.8 799.2 199.4 786 199.4 786 182 771.4 173.4 741.8 180 720l4.8-15.8c9.4-39.8 4.4-83-17.6-121.2-22-38.2-57-64.2-96.2-75.8l-16-3.6c-22-5-43.6-27.4-47.6-49.8 0 0-3.6-20-3.6-70.8 0-50.8 3.6-70.8 3.6-70.8 4-22.4 25.4-44.8 47.6-49.8l15.6-3.6 0 0c39.2-11.6 74.4-37.6 96.4-76 22-38.2 27.2-81.6 17.6-121.4l0 0L180 46c-6.6-21.6 2-51.4 19.4-66.2 0 0 15.6-13.2 59.6-38.6 44-25.4 63-32.2 63-32.2 21.4-7.8 51.4-0.4 67 16.2l11 11.8c29.8 28.2 69.8 45.4 114 45.4 44.2 0 84.4-17.4 114-45.6l0 0 11-11.8c15.4-16.6 45.6-24 67-16.2 0 0 19.2 7 63.2 32.2 44 25.4 59.4 38.6 59.4 38.6 17.4 14.6 26 44.4 19.4 66.2l-4.8 16c-9.4 39.6-4.4 82.8 17.6 120.8 22 38.2 57.2 64.4 96.4 76l0 0 15.6 3.6c22 5 43.6 27.4 47.6 49.8 0 0 3.6 20 3.6 70.8C1023.8 433.8 1020.2 453.8 1020.2 453.8L1020.2 453.8zM514 179.6c-112.2 0-203.4 91-203.4 203.4 0 112.2 91 203.2 203.4 203.2 112.2 0 203.4-91 203.4-203.4C717.2 270.6 626.2 179.6 514 179.6L514 179.6zM514 179.6"  horiz-adv-x="1024" />

    
    <glyph glyph-name="hongbao1" unicode="&#58932;" d="M736 896 288 896C176.256 896 85.333333 808.704 85.333333 701.418667L85.333333 226.261333C85.333333 208.597333 99.669333 194.261333 117.333333 194.261333 134.997333 194.261333 149.333333 208.597333 149.333333 226.261333L149.333333 701.418667C149.333333 773.418667 211.541333 832 288 832L736 832C812.458667 832 874.666667 773.418667 874.666667 701.418667L874.666667 75.882667C874.666667-23.488 835.797333-64 740.501333-64L283.52-64C186.965333-64 149.333333-24.789333 149.333333 75.882667 149.333333 93.546667 134.997333 107.882667 117.333333 107.882667 99.669333 107.882667 85.333333 93.546667 85.333333 75.882667 85.333333-59.413333 152.021333-128 283.52-128L740.501333-128C872-128 938.666667-59.413333 938.666667 75.882667L938.666667 701.418667C938.666667 808.704 847.744 896 736 896ZM784.292267 719.374933C775.822933 734.9056 756.324267 740.516267 740.8576 732.068267 525.518933 614.094933 291.406933 731.2576 289.0816 732.452267 273.444267 740.5376 254.1376 734.372267 246.030933 718.670933 237.924267 702.948267 244.0896 683.662933 259.790933 675.556267 266.8736 671.886933 380.238933 614.756267 527.0336 614.756267 602.980267 614.756267 687.8656 630.052267 771.598933 675.940267 787.108267 684.430933 792.782933 703.8656 784.292267 719.374933ZM658.5216 258.312533C676.1856 258.312533 690.5216 272.648533 690.5216 290.312533 690.5216 307.976533 676.1856 322.312533 658.5216 322.312533L571.6096 322.312533 659.886933 455.069867C669.678933 469.789867 665.6896 489.6512 650.9696 499.4432 636.2496 509.2352 616.4096 505.224533 606.596267 490.525867L513.6256 350.685867 420.6336 490.525867C410.8416 505.2032 390.980267 509.213867 376.260267 499.4432 361.540267 489.6512 357.550933 469.789867 367.342933 455.069867L455.620267 322.312533 372.164267 322.312533C354.500267 322.312533 340.164267 307.976533 340.164267 290.312533 340.164267 272.648533 354.500267 258.312533 372.164267 258.312533L483.332267 258.312533 483.332267 204.4032 372.164267 204.4032C354.500267 204.4032 340.164267 190.0672 340.164267 172.4032 340.164267 154.7392 354.500267 140.4032 372.164267 140.4032L483.332267 140.4032 483.332267 58.056533C483.332267 40.392533 497.668267 26.056533 515.332267 26.056533 532.996267 26.056533 547.332267 40.392533 547.332267 58.056533L547.332267 140.4032 658.5216 140.4032C676.1856 140.4032 690.5216 154.7392 690.5216 172.4032 690.5216 190.0672 676.1856 204.4032 658.5216 204.4032L547.332267 204.4032 547.332267 258.312533 658.5216 258.312533Z"  horiz-adv-x="1024" />

    
    <glyph glyph-name="comment" unicode="&#58922;" d="M550.02464 117.721235C550.02464 104.837328 560.687274 94.397219 573.855853 94.397219L936.168787 94.397219C949.330445 94.397219 960 104.838294 960 117.721235 960 130.603206 949.330445 141.045251 936.168787 141.045251L573.855853 141.045251C560.688262 141.045251 550.02464 130.603206 550.02464 117.721235L550.02464 117.721235ZM936.168787 14.648032 401.666499 14.648032C388.499898 14.648032 377.834298 4.20599 377.834298-8.675984 377.834298-21.559891 388.499898-32 401.666499-32L936.168787-32C949.330445-32 960-21.558925 960-8.675984 960 4.20599 949.330445 14.648032 936.168787 14.648032L936.168787 14.648032ZM419.500845 100.274922C419.775766 100.556563 419.978496 100.884662 420.245507 101.17695 420.845789 101.723779 421.524192 102.261901 422.066125 102.807763L804.38015 476.962768C804.392019 476.962768 804.39993 476.969546 804.408832 476.980192 804.420698 476.986966 804.420698 476.998579 804.428608 477.008259L875.731379 546.784803C905.632637 576.054271 922.107206 614.968281 922.107206 656.357062 922.107206 697.745843 905.623738 736.657917 875.731379 765.926417L854.594013 786.611129C824.686819 815.88834 784.912096 832 742.640323 832 700.355696 832 660.594816 815.878661 630.680704 786.611129L177.019404 342.614733C176.475493 342.090163 175.95235 341.426221 175.418328 340.868746 175.11176 340.593878 174.759701 340.394502 174.4561 340.10415 173.474094 339.152762 172.673061 338.10943 171.889829 337.042867 171.804782 336.943181 171.717756 336.837686 171.633697 336.733158 171.549638 336.605402 171.433933 336.497005 171.359764 336.358605 117.564992 271.039936 69.871912 36.31704 64.435769 8.883568 62.890073 1.07599 65.513702-6.959034 71.394862-12.444758 75.874711-16.619059 81.777628-18.869293 87.829874-18.869293 89.718728-18.869293 91.615494-18.65927 93.495448-18.213094 120.482332-11.744042 352.795603 45.018906 416.895018 98.209546 417.791974 98.856064 418.696845 99.483226 419.506778 100.277824L419.500845 100.274922ZM225.018063 323.603418 576.229283 667.322708 753.857747 493.461565 402.656416 149.744211 225.016085 323.601482 225.018063 323.603418ZM664.378461 753.615471C685.28343 774.065965 713.072336 785.335514 742.639334 785.335514 772.196445 785.335514 799.984362 774.06403 820.881421 753.615471L842.026701 732.923016C862.92376 712.470586 874.438851 685.274235 874.438851 656.34448 874.438851 627.412789 862.921782 600.213534 842.026701 579.765944L787.54759 526.44561 609.915171 700.30772 664.37648 753.62031 664.378461 753.615471ZM195.226577 286.78769 365.458842 120.170842C313.636982 91.998906 203.07274 58.134128 118.809064 36.258 137.581904 122.030067 167.856977 234.762326 195.227565 286.78672L195.226577 286.78769Z"  horiz-adv-x="1024" />

    
    <glyph glyph-name="solid-down" unicode="&#58900;" d="M1024 668.608l-512-569.344-512 569.408 1024-0.064z"  horiz-adv-x="1024" />

    
    <glyph glyph-name="boult-down" unicode="&#58901;" d="M207.843 357.034l277.443-301.682c14.781-16.074 38.742-16.074 53.495 0l277.418 301.682c7.394 8.033 11.075 18.564 11.075 29.099 0 10.532-3.681 21.065-11.099 29.075-14.779 16.071-38.717 16.071-53.495 0l-209.738-228.083 0 665.588c0 22.729-18.423 41.154-41.15 41.153-22.725 0-41.148-18.424-41.148-41.154l0-665.092-209.303 227.584c-14.779 16.071-38.742 16.071-53.495 0-14.783-16.072-14.783-42.104-0.002-58.172z"  horiz-adv-x="1024" />

    
    <glyph glyph-name="fill-info" unicode="&#58923;" d="M481.049 784.099c-212.166 0-384.776-172.61-384.776-384.776s172.584-384.776 384.776-384.776c212.166 0 384.776 172.61 384.776 384.776s-172.61 384.776-384.776 384.776zM507.839 211.792c0-14.812-11.998-26.785-26.79-26.785-14.787 0-26.79 11.973-26.79 26.79l-0 241.101c0 14.787 12.003 26.79 26.79 26.79s26.79-12.003 26.79-26.79l0-241.106zM481.049 533.269c-22.196 0-40.185 17.99-40.185 40.185 0 22.19 17.99 40.185 40.185 40.185s40.185-17.99 40.185-40.185-17.99-40.185-40.185-40.185z"  horiz-adv-x="1024" />

    
    <glyph glyph-name="record" unicode="&#58930;" d="M898.904 93.71c-13.403 0-23.491 10.058-23.491 17.258v546.873c-8.495 55.482-34.641 89.633-100.17 100.17l-571.636-1.402c-7.172 0-12.992 14.196-12.992 21.369 0 7.171 5.82 21.369 12.992 21.369l571.636 1.403c78.807 0 142.908-64.101 142.908-142.909v-546.873c0.001-7.2-6.68-17.258-19.246-17.258v0zM697.863 720.772h-470.144c-78.782 0-142.91-64.1-142.91-142.909v-467.704c0-78.805 64.128-142.909 142.91-142.909h470.144c78.809 0 142.909 64.104 142.91 142.909l-0 467.704c0 78.808-64.101 142.909-142.91 142.909zM290.757 156.267c-14.077 0-25.489 11.412-25.489 25.49 0 14.077 11.412 25.487 25.489 25.487 14.078 0 25.49-11.411 25.49-25.487 0-14.078-11.412-25.49-25.49-25.49zM290.757 343.7c-14.077 0-25.489 11.412-25.489 25.49 0 14.077 11.412 25.487 25.489 25.487 14.078 0 25.49-11.411 25.49-25.487 0-14.078-11.412-25.49-25.49-25.49zM290.757 531.133c-14.077 0-25.489 11.411-25.489 25.489 0 14.077 11.412 25.487 25.489 25.487 14.078 0 25.49-11.411 25.49-25.487 0-14.077-11.412-25.489-25.49-25.489zM647.571 160.437h-305.862c-7.035 0-12.744 9.551-12.744 21.318 0 11.768 5.708 21.318 12.744 21.318h305.862c7.008 0 12.743-9.549 12.743-21.318 0-11.767-5.708-21.318-12.743-21.318zM647.571 347.87h-305.862c-7.035 0-12.744 9.551-12.744 21.318 0 11.768 5.708 21.318 12.744 21.318h305.862c7.008 0 12.743-9.549 12.743-21.318 0-11.767-5.708-21.318-12.743-21.318zM647.571 535.278h-305.862c-7.035 0-12.744 9.549-12.744 21.318 0 11.767 5.708 21.318 12.744 21.318h305.862c7.008 0 12.743-9.551 12.743-21.318 0-11.768-5.708-21.318-12.743-21.318z"  horiz-adv-x="1024" />

    
    <glyph glyph-name="arrow-down" unicode="&#58931;" d="M894.483 553.569l-43.344 43.343-339.139-339.14-339.141 339.14-43.343-43.343 382.484-382.481 382.483 382.481z"  horiz-adv-x="1024" />

    
    <glyph glyph-name="praise" unicode="&#58934;" d="M853.333 64.99c0-50.244-40.755-90.999-91.022-90.999h-364.089c-0.114 0-0.228 0.023-0.364 0.023h-112.868c-0.182 0-0.364-0.023-0.546-0.023h-159.289v500.622h159.289c2.844 0 5.552-0.546 8.329-0.819 28.444 81.92 68.54 195.447 84.878 232.949 25.623 58.914 47.969 78.052 88.815 86.471 40.619 8.351 168.892-51.246 129.161-209.237-4.096-16.293-9.899-39.481-15.997-63.852h250.948c50.267 0 68.267-40.755 68.267-91.045l-45.511-364.089zM261.689 429.102l-91.022 0.023v-409.646l113.778 0.046v405.049l0.865 3.868c0.205 0.569-0.205-0.569 0 0-4.665 1.57-18.432 0.66-23.62 0.66zM807.822 474.613h-284.444l34.133 136.556c19.069 83.945-49.607 134.44-68.267 136.533-13.062 1.456-50.176-5.211-68.267-45.534-11.833-26.374-64.080-171.19-91.546-247.785 0.091-0.865 0.501-1.616 0.501-2.503v-432.356l432.356-0.046c25.122 0 45.511 20.389 45.511 45.534l45.511 364.089c0.023 25.145-20.366 45.511-45.488 45.511z"  horiz-adv-x="1024" />

    


  </font>
</defs>
</svg>
